<svg width="516" height="344" viewBox="0 0 516 344" fill="none" xmlns="http://www.w3.org/2000/svg">
<path d="M220.333 131.478L206.625 138.229C198.539 142.211 195.213 151.994 199.195 160.079L222.251 206.895C226.233 214.98 236.016 218.307 244.102 214.324L257.81 207.573C265.895 203.591 269.222 193.808 265.24 185.723L242.183 138.908C238.201 130.822 228.419 127.496 220.333 131.478Z" fill="#FFCB05"/>
<path opacity="0.4" d="M220.332 131.315L206.624 138.066C198.538 142.048 195.212 151.831 199.194 159.917L222.25 206.732C226.232 214.817 236.015 218.144 244.1 214.162L257.809 207.411C265.894 203.429 269.221 193.646 265.239 185.56L242.182 138.745C238.2 130.66 228.418 127.333 220.332 131.315Z" fill="black"/>
<path d="M273.776 288.423C273.617 288.538 273.444 288.631 273.26 288.699L271.684 289.387C270.996 289.689 270.088 289.985 269.042 290.377L267.322 290.886C266.71 291.079 266.043 291.237 265.334 291.389C261.9 292.181 258.38 292.544 254.856 292.469C250.168 292.402 245.529 291.52 241.144 289.861C238.604 288.893 236.17 287.669 233.879 286.208C231.421 284.555 229.175 282.607 227.191 280.408C222.777 275.541 219.742 269.585 218.399 263.153C217.676 259.679 217.518 256.11 217.931 252.585C218.375 248.898 219.509 245.327 221.274 242.059C223.105 238.69 225.505 235.664 228.368 233.115C231.312 230.469 234.726 228.399 238.433 227.012C242.172 225.645 246.158 225.085 250.129 225.368C252.081 225.515 253.999 225.956 255.819 226.675C257.642 227.391 259.278 228.513 260.601 229.957C261.911 231.388 262.813 233.144 263.215 235.041C263.617 236.932 263.362 238.902 262.493 240.628C262.08 241.47 261.542 242.245 260.896 242.926C260.28 243.6 259.587 244.2 258.832 244.715C257.363 245.719 255.751 246.496 254.051 247.02C248.077 248.605 241.752 248.218 236.016 245.915C230.281 243.613 225.443 239.519 222.224 234.243C220.958 232.098 220.01 229.781 219.41 227.363C217.969 221.766 218.23 215.866 220.16 210.418C220.913 208.322 221.923 206.328 223.166 204.48C223.607 203.854 223.978 203.407 224.219 203.104C224.33 202.941 224.459 202.791 224.604 202.657C224.525 202.839 224.423 203.01 224.302 203.166C224.095 203.497 223.751 203.964 223.345 204.597C220.347 209.455 218.862 215.095 219.08 220.8C219.152 222.962 219.473 225.109 220.036 227.198C220.64 229.541 221.583 231.782 222.836 233.851C225.758 238.6 230.062 242.34 235.172 244.57C237.987 245.841 240.993 246.636 244.068 246.923C247.306 247.23 250.573 246.927 253.7 246.029C255.299 245.531 256.814 244.793 258.193 243.841C258.889 243.368 259.526 242.814 260.091 242.19C260.669 241.579 261.15 240.883 261.516 240.126C262.278 238.603 262.499 236.865 262.142 235.2C261.767 233.487 260.946 231.903 259.761 230.611C258.542 229.291 257.039 228.265 255.365 227.611C253.656 226.927 251.854 226.503 250.019 226.352C246.21 226.092 242.39 226.636 238.805 227.948C231.711 230.669 225.828 235.845 222.224 242.534C220.509 245.681 219.405 249.124 218.97 252.682C218.559 256.097 218.7 259.556 219.389 262.926C220.674 269.199 223.601 275.018 227.872 279.789C229.795 281.946 231.974 283.862 234.36 285.492C236.589 286.958 238.961 288.194 241.44 289.18C243.708 290.048 246.047 290.72 248.43 291.189C254.001 292.216 259.717 292.155 265.265 291.01C265.953 290.873 266.641 290.735 267.247 290.556L268.967 290.095C270.012 289.744 270.914 289.476 271.622 289.215L273.232 288.602C273.407 288.526 273.589 288.466 273.776 288.423Z" fill="#263238"/>
<path d="M230.556 190.576C230.556 190.631 229.758 190.948 228.492 191.587C225.194 193.252 222.286 195.597 219.96 198.467C219.066 199.561 218.584 200.297 218.529 200.27C218.597 200.07 218.694 199.883 218.818 199.713C219.106 199.236 219.421 198.777 219.761 198.337C222.019 195.327 224.994 192.931 228.416 191.367C228.928 191.127 229.454 190.918 229.991 190.741C230.17 190.658 230.36 190.602 230.556 190.576Z" fill="#263238"/>
<path d="M224.384 199.843C224.384 199.843 224.488 199.609 224.845 199.355C225.365 198.995 226.005 198.855 226.627 198.963C227.089 199.059 227.516 199.278 227.863 199.598C228.209 199.918 228.462 200.326 228.595 200.779C228.745 201.344 228.711 201.942 228.498 202.486C228.285 203.03 227.905 203.493 227.412 203.806C226.901 204.145 226.283 204.28 225.678 204.185C225.126 204.105 224.609 203.866 224.192 203.497C223.83 203.19 223.565 202.785 223.428 202.331C223.291 201.877 223.289 201.393 223.421 200.937C223.578 200.332 223.94 199.799 224.446 199.431C224.621 199.286 224.833 199.193 225.059 199.162C225.059 199.162 224.845 199.279 224.536 199.541C224.097 199.92 223.792 200.432 223.669 200.999C223.57 201.406 223.587 201.831 223.717 202.229C223.847 202.626 224.085 202.979 224.405 203.249C224.781 203.591 225.257 203.802 225.763 203.852C226.269 203.902 226.777 203.787 227.212 203.524C227.639 203.249 227.971 202.849 228.161 202.379C228.352 201.909 228.393 201.391 228.278 200.896C228.188 200.555 228.021 200.24 227.788 199.976C227.556 199.711 227.265 199.504 226.939 199.37C226.613 199.237 226.26 199.181 225.909 199.207C225.558 199.233 225.217 199.34 224.914 199.52C224.563 199.678 224.412 199.864 224.384 199.843Z" fill="#263238"/>
<path d="M220.333 131.478L206.625 138.229C198.539 142.211 195.213 151.994 199.195 160.079L222.251 206.895C226.233 214.98 236.016 218.307 244.102 214.324L257.81 207.573C265.895 203.591 269.222 193.808 265.24 185.723L242.183 138.908C238.201 130.822 228.419 127.496 220.333 131.478Z" fill="#FFCB05"/>
<path opacity="0.4" d="M220.332 131.315L206.624 138.066C198.538 142.048 195.212 151.831 199.194 159.917L222.25 206.732C226.232 214.817 236.015 218.144 244.1 214.162L257.809 207.411C265.894 203.429 269.221 193.646 265.239 185.56L242.182 138.745C238.2 130.66 228.418 127.333 220.332 131.315Z" fill="black"/>
<path d="M273.776 288.423C273.617 288.538 273.444 288.631 273.26 288.699L271.684 289.387C270.996 289.689 270.088 289.985 269.042 290.377L267.322 290.886C266.71 291.079 266.043 291.237 265.334 291.389C261.9 292.181 258.38 292.544 254.856 292.469C250.168 292.402 245.529 291.52 241.144 289.861C238.604 288.893 236.17 287.669 233.879 286.208C231.421 284.555 229.175 282.607 227.191 280.408C222.777 275.541 219.742 269.585 218.399 263.153C217.676 259.679 217.518 256.11 217.931 252.585C218.375 248.898 219.509 245.327 221.274 242.059C223.105 238.69 225.505 235.664 228.368 233.115C231.312 230.469 234.726 228.399 238.433 227.012C242.172 225.645 246.158 225.085 250.129 225.368C252.081 225.515 253.999 225.956 255.819 226.675C257.642 227.391 259.278 228.513 260.601 229.957C261.911 231.388 262.813 233.144 263.215 235.041C263.617 236.932 263.362 238.902 262.493 240.628C262.08 241.47 261.542 242.245 260.896 242.926C260.28 243.6 259.587 244.2 258.832 244.715C257.363 245.719 255.751 246.496 254.051 247.02C248.077 248.605 241.752 248.218 236.016 245.915C230.281 243.613 225.443 239.519 222.224 234.243C220.958 232.098 220.01 229.781 219.41 227.363C217.969 221.766 218.23 215.866 220.16 210.418C220.913 208.322 221.923 206.328 223.166 204.48C223.607 203.854 223.978 203.407 224.219 203.104C224.33 202.941 224.459 202.791 224.604 202.657C224.525 202.839 224.423 203.01 224.302 203.166C224.095 203.497 223.751 203.964 223.345 204.597C220.347 209.455 218.862 215.095 219.08 220.8C219.152 222.962 219.473 225.109 220.036 227.198C220.64 229.541 221.583 231.782 222.836 233.851C225.758 238.6 230.062 242.34 235.172 244.57C237.987 245.841 240.993 246.636 244.068 246.923C247.306 247.23 250.573 246.927 253.7 246.029C255.299 245.531 256.814 244.793 258.193 243.841C258.889 243.368 259.526 242.814 260.091 242.19C260.669 241.579 261.15 240.883 261.516 240.126C262.278 238.603 262.499 236.865 262.142 235.2C261.767 233.487 260.946 231.903 259.761 230.611C258.542 229.291 257.039 228.265 255.365 227.611C253.656 226.927 251.854 226.503 250.019 226.352C246.21 226.092 242.39 226.636 238.805 227.948C231.711 230.669 225.828 235.845 222.224 242.534C220.509 245.681 219.405 249.124 218.97 252.682C218.559 256.097 218.7 259.556 219.389 262.926C220.674 269.199 223.601 275.018 227.872 279.789C229.795 281.946 231.974 283.862 234.36 285.492C236.589 286.958 238.961 288.194 241.44 289.18C243.708 290.048 246.047 290.72 248.43 291.189C254.001 292.216 259.717 292.155 265.265 291.01C265.953 290.873 266.641 290.735 267.247 290.556L268.967 290.095C270.012 289.744 270.914 289.476 271.622 289.215L273.232 288.602C273.407 288.526 273.589 288.466 273.776 288.423Z" fill="#263238"/>
<path d="M230.556 190.576C230.556 190.631 229.758 190.948 228.492 191.587C225.194 193.252 222.286 195.597 219.96 198.467C219.066 199.561 218.584 200.297 218.529 200.27C218.597 200.07 218.694 199.883 218.818 199.713C219.106 199.236 219.421 198.777 219.761 198.337C222.019 195.327 224.994 192.931 228.416 191.367C228.928 191.127 229.454 190.918 229.991 190.741C230.17 190.658 230.36 190.602 230.556 190.576Z" fill="#263238"/>
<path d="M224.384 199.843C224.384 199.843 224.488 199.609 224.845 199.355C225.365 198.995 226.005 198.855 226.627 198.963C227.089 199.059 227.516 199.278 227.863 199.598C228.209 199.918 228.462 200.326 228.595 200.779C228.745 201.344 228.711 201.942 228.498 202.486C228.285 203.03 227.905 203.493 227.412 203.806C226.901 204.145 226.283 204.28 225.678 204.185C225.126 204.105 224.609 203.866 224.192 203.497C223.83 203.19 223.565 202.785 223.428 202.331C223.291 201.877 223.289 201.393 223.421 200.937C223.578 200.332 223.94 199.799 224.446 199.431C224.621 199.286 224.833 199.193 225.059 199.162C225.059 199.162 224.845 199.279 224.536 199.541C224.097 199.92 223.792 200.432 223.669 200.999C223.57 201.406 223.587 201.831 223.717 202.229C223.847 202.626 224.085 202.979 224.405 203.249C224.781 203.591 225.257 203.802 225.763 203.852C226.269 203.902 226.777 203.787 227.212 203.524C227.639 203.249 227.971 202.849 228.161 202.379C228.352 201.909 228.393 201.391 228.278 200.896C228.188 200.555 228.021 200.24 227.788 199.976C227.556 199.711 227.265 199.504 226.939 199.37C226.613 199.237 226.26 199.181 225.909 199.207C225.558 199.233 225.217 199.34 224.914 199.52C224.563 199.678 224.412 199.864 224.384 199.843Z" fill="#263238"/>
<path d="M231.856 134.236C230.528 131.601 229.359 129.234 229.359 129.234C229.359 129.234 234.312 126.193 232.159 120.868C230.005 115.543 223.992 103.757 223.992 103.757L212.296 103.647L205.623 116.561L218.096 141.198C219.011 142.987 220.588 144.347 222.491 144.99C224.395 145.632 226.474 145.506 228.285 144.638C229.209 144.197 230.036 143.576 230.718 142.812C231.399 142.047 231.921 141.155 232.253 140.186C232.586 139.218 232.722 138.193 232.654 137.171C232.586 136.149 232.314 135.151 231.856 134.236Z" fill="#FFBE9D"/>
<path d="M226.999 112.99C227.06 113.12 227.082 113.266 227.061 113.408C227.04 113.551 226.978 113.684 226.881 113.791C226.785 113.898 226.659 113.974 226.52 114.009C226.38 114.045 226.233 114.038 226.097 113.99C225.962 113.943 225.843 113.856 225.757 113.741C225.67 113.625 225.62 113.487 225.612 113.344C225.603 113.2 225.638 113.057 225.711 112.933C225.784 112.809 225.892 112.709 226.022 112.646C226.108 112.604 226.202 112.58 226.299 112.574C226.395 112.569 226.491 112.583 226.582 112.615C226.673 112.647 226.756 112.696 226.828 112.761C226.899 112.825 226.957 112.903 226.999 112.99Z" fill="#263238"/>
<path d="M227.301 111.965C227.253 112.089 226.565 111.91 225.836 112.206C225.107 112.502 224.728 113.107 224.611 113.052C224.494 112.997 224.57 112.825 224.728 112.55C224.944 112.194 225.27 111.918 225.657 111.766C226.042 111.609 226.466 111.58 226.868 111.683C227.171 111.772 227.322 111.903 227.301 111.965Z" fill="#263238"/>
<path d="M219.327 116.657C219.402 116.832 219.406 117.029 219.339 117.206C219.271 117.384 219.138 117.528 218.967 117.61C218.796 117.692 218.599 117.704 218.419 117.644C218.239 117.585 218.089 117.458 218 117.29C217.953 117.202 217.925 117.106 217.917 117.007C217.908 116.908 217.92 116.809 217.951 116.714C217.982 116.62 218.032 116.533 218.098 116.459C218.164 116.384 218.244 116.324 218.333 116.281C218.423 116.238 218.52 116.214 218.62 116.21C218.719 116.206 218.818 116.222 218.911 116.257C219.004 116.292 219.088 116.346 219.16 116.415C219.232 116.483 219.289 116.566 219.327 116.657Z" fill="#263238"/>
<path d="M219.389 115.735C219.348 115.866 218.66 115.68 217.931 115.983C217.202 116.286 216.823 116.884 216.706 116.822C216.589 116.76 216.665 116.595 216.823 116.327C217.038 115.969 217.364 115.691 217.752 115.536C218.137 115.381 218.562 115.354 218.963 115.46C219.266 115.543 219.417 115.68 219.389 115.735Z" fill="#263238"/>
<path d="M224.838 120.531C225.177 120.259 225.547 120.028 225.939 119.843C226.111 119.746 226.283 119.636 226.256 119.485C226.185 119.274 226.054 119.09 225.877 118.955L224.687 117.71C223.848 116.822 223.098 116.004 222.568 115.398C222.256 115.094 221.984 114.752 221.756 114.38C222.113 114.629 222.439 114.92 222.726 115.247C223.304 115.811 224.102 116.623 224.914 117.49L226.09 118.756C226.308 118.929 226.459 119.172 226.517 119.444C226.522 119.52 226.508 119.596 226.477 119.665C226.446 119.735 226.398 119.796 226.338 119.843C226.249 119.917 226.149 119.977 226.042 120.022C225.664 120.241 225.259 120.412 224.838 120.531Z" fill="#263238"/>
<path d="M222.809 122.333C224.163 122.531 225.546 122.372 226.82 121.872C226.732 122.362 226.48 122.807 226.104 123.134C225.729 123.461 225.253 123.649 224.756 123.668C222.946 123.757 222.809 122.333 222.809 122.333Z" fill="white"/>
<path d="M229.338 129.193C226.827 130.262 224.063 130.594 221.371 130.149C221.371 130.149 224.866 133.176 229.95 130.486L229.338 129.193Z" fill="#EB996E"/>
<path d="M199.974 124.528L200.07 124.473C199.711 123.491 199.401 122.493 199.142 121.48C196.809 109.344 205.334 102.801 207.212 101.907C209.228 100.943 212.22 98.1569 219.892 101.04C221.065 101.469 222.169 102.069 223.167 102.822C224.964 103.699 226.529 104.989 227.735 106.585C228.801 108.009 229.145 109.069 229.111 109.096C229.077 109.124 228.533 108.167 227.412 106.867C226.76 106.099 226.024 105.406 225.217 104.803C226.612 106.576 227.418 108.741 227.522 110.995L226.283 110.61L217.78 112.268C217.408 109.942 215.31 107.83 214.25 106.888H214.181C216.369 115.357 208.216 120.235 208.216 120.235L214.856 134.827C203.724 137.456 199.974 124.528 199.974 124.528Z" fill="#263238"/>
<path d="M211.491 128.573C211.19 129.036 210.739 129.38 210.214 129.548C209.689 129.716 209.122 129.697 208.609 129.495C208.104 129.274 207.659 128.936 207.309 128.511C206.958 128.086 206.713 127.584 206.593 127.046C206.394 126.404 206.445 125.711 206.737 125.106C207.026 124.761 207.396 124.492 207.813 124.322C208.231 124.153 208.683 124.089 209.131 124.136L211.491 128.573Z" fill="#FFBE9D"/>
<path d="M209.902 128.257C209.902 128.181 209.599 128.257 209.214 128.188C208.955 128.144 208.713 128.032 208.511 127.865C208.309 127.697 208.155 127.479 208.064 127.232C207.974 126.986 207.95 126.72 207.994 126.462C208.039 126.203 208.151 125.961 208.319 125.76C208.588 125.429 208.856 125.305 208.829 125.237C208.801 125.168 208.478 125.175 208.072 125.512C207.815 125.744 207.633 126.048 207.55 126.384C207.467 126.721 207.487 127.074 207.607 127.399C207.727 127.724 207.941 128.006 208.223 128.208C208.504 128.41 208.84 128.523 209.186 128.532C209.675 128.525 209.936 128.305 209.902 128.257Z" fill="#EB996E"/>
<path d="M240.724 109.66C240.724 109.66 240.69 109.53 240.642 109.268C240.594 109.007 240.518 108.58 240.428 108.099C240.38 107.837 240.332 107.555 240.27 107.239C240.208 106.922 240.091 106.551 239.995 106.22C239.784 105.369 239.511 104.534 239.176 103.723C238.326 101.472 237.138 99.3628 235.654 97.469C233.5 94.6827 230.781 92.3838 227.676 90.7237C224.57 89.0636 221.148 88.0798 217.635 87.837C216.584 87.7614 215.528 87.7614 214.477 87.837C213.94 87.8782 213.404 87.892 212.86 87.9608L211.244 88.236C210.968 88.291 210.693 88.3186 210.425 88.3874L209.62 88.6144C209.076 88.7658 208.533 88.8965 207.989 89.0754C206.904 89.466 205.844 89.9256 204.818 90.4514C203.765 90.9828 202.747 91.5802 201.77 92.2402C201.288 92.5842 200.827 92.9763 200.346 93.341C199.857 93.7039 199.397 94.1041 198.97 94.5381C197.126 96.2187 195.574 98.1923 194.374 100.379L193.899 101.205L193.493 102.072L193.094 102.945C192.954 103.235 192.834 103.534 192.736 103.84C192.523 104.445 192.317 105.058 192.103 105.677C191.89 106.296 191.801 106.943 191.649 107.576C190.548 112.817 191.189 118.274 193.472 123.118C193.768 123.702 194.064 124.28 194.353 124.865C194.642 125.45 195.041 125.959 195.392 126.503C195.56 126.776 195.746 127.038 195.949 127.287L196.541 128.044L197.133 128.8L197.786 129.488C198.646 130.406 199.565 131.266 200.538 132.062C201.515 132.819 202.543 133.508 203.614 134.126C204.126 134.447 204.662 134.73 205.217 134.972C205.767 135.22 206.304 135.488 206.861 135.708C207.963 136.129 209.091 136.476 210.239 136.747C211.359 137.01 212.494 137.203 213.638 137.325C214.202 137.373 214.766 137.373 215.323 137.4H216.163C216.438 137.4 216.713 137.4 216.995 137.359L218.633 137.249C219.176 137.194 219.706 137.084 220.236 137.001C221.275 136.832 222.3 136.588 223.304 136.272C226.996 135.133 230.367 133.139 233.143 130.452C235.442 128.248 237.297 125.623 238.605 122.719C239.604 120.537 240.27 118.218 240.58 115.839C240.714 114.973 240.785 114.1 240.793 113.224C240.793 112.839 240.834 112.488 240.834 112.165L240.786 111.298C240.786 110.782 240.738 110.39 240.724 110.108C240.711 109.825 240.724 109.702 240.724 109.702C240.748 109.836 240.764 109.971 240.772 110.108C240.772 110.383 240.828 110.796 240.869 111.291C240.869 111.552 240.91 111.848 240.938 112.165C240.965 112.481 240.938 112.853 240.938 113.224C240.94 114.106 240.878 114.987 240.752 115.859C240.469 118.266 239.817 120.614 238.819 122.822C237.376 126.076 235.258 128.986 232.604 131.358C229.951 133.731 226.823 135.511 223.428 136.582C222.409 136.899 221.37 137.147 220.318 137.325C219.782 137.407 219.252 137.524 218.701 137.579L217.043 137.696C216.761 137.696 216.479 137.744 216.197 137.738H215.351C214.787 137.738 214.216 137.738 213.638 137.669C212.48 137.548 211.331 137.352 210.198 137.084C209.028 136.82 207.878 136.473 206.758 136.045C206.194 135.818 205.65 135.55 205.093 135.302C204.53 135.054 203.985 134.767 203.462 134.442C202.377 133.827 201.335 133.137 200.346 132.378C199.356 131.577 198.422 130.708 197.552 129.777L196.864 129.089L196.266 128.326L195.667 127.562C195.459 127.311 195.271 127.044 195.103 126.764L194.044 125.099L193.149 123.331C190.829 118.419 190.18 112.884 191.298 107.569C191.457 106.922 191.608 106.275 191.766 105.636L192.406 103.778C192.502 103.466 192.624 103.162 192.771 102.87L193.177 101.982L193.583 101.102L194.071 100.269C195.286 98.0508 196.862 96.051 198.736 94.3523C199.165 93.9142 199.625 93.5072 200.112 93.1346C200.6 92.7699 201.068 92.3778 201.563 92.0269C203.517 90.7016 205.636 89.6376 207.865 88.8621C208.416 88.6763 208.973 88.5456 209.517 88.3942L210.335 88.1672C210.604 88.0984 210.886 88.0709 211.161 88.0158L212.805 87.7475C213.349 87.6718 213.899 87.665 214.436 87.6168C215.501 87.5445 216.57 87.5445 217.635 87.6168C221.185 87.8708 224.64 88.8777 227.77 90.5705C230.901 92.2633 233.635 94.6032 235.791 97.4346C237.275 99.352 238.454 101.487 239.286 103.764C239.61 104.584 239.874 105.425 240.078 106.282C240.174 106.654 240.277 106.97 240.339 107.307C240.401 107.644 240.435 107.913 240.477 108.174C240.552 108.683 240.614 109.069 240.656 109.351C240.697 109.633 240.724 109.66 240.724 109.66Z" fill="#263238"/>
<path d="M201.137 108.339C201.614 108.084 202.025 107.719 202.335 107.275C202.645 106.831 202.846 106.32 202.921 105.783C202.996 105.247 202.943 104.7 202.767 104.188C202.591 103.676 202.296 103.212 201.907 102.835C200.483 101.459 198.027 101.576 196.403 102.767C194.866 104.06 193.9 105.906 193.713 107.906C193.507 109.041 193.602 110.211 193.988 111.298C194.185 111.839 194.514 112.322 194.945 112.703C195.377 113.084 195.897 113.351 196.458 113.479C197.095 113.543 197.738 113.441 198.324 113.183C198.91 112.925 199.419 112.52 199.802 112.006C200.56 110.967 201.128 109.803 201.481 108.566" fill="#263238"/>
<path d="M230.067 98.783C230.019 98.8381 229.118 97.9505 227.46 96.7878C226.487 96.1128 225.468 95.5059 224.412 94.9715C223.115 94.3288 221.769 93.7905 220.387 93.3616C218.997 92.9518 217.578 92.6504 216.142 92.4603C214.967 92.3157 213.783 92.2559 212.599 92.2814C210.576 92.3227 209.338 92.5566 209.324 92.4878C209.604 92.3882 209.895 92.3213 210.191 92.2883C210.532 92.2188 210.876 92.1682 211.223 92.1369C211.622 92.0957 212.083 92.0337 212.599 92.0269C213.797 91.9683 214.998 92.0051 216.19 92.1369C217.648 92.3066 219.089 92.6013 220.497 93.0176C221.901 93.453 223.263 94.0101 224.57 94.6825C225.633 95.2367 226.652 95.8715 227.618 96.5814C228.038 96.8773 228.382 97.1869 228.691 97.4414C229.001 97.696 229.262 97.9368 229.469 98.1294C229.693 98.3234 229.894 98.5427 230.067 98.783Z" fill="#455A64"/>
<path d="M232.283 102.512C232.179 102.512 231.98 101.968 231.595 101.356C231.209 100.744 230.796 100.304 230.865 100.221C230.934 100.138 231.478 100.489 231.897 101.164C232.317 101.838 232.379 102.512 232.283 102.512Z" fill="#455A64"/>
<path d="M194.504 107.961C194.559 108.772 194.408 109.584 194.064 110.321C193.745 111.108 193.53 111.934 193.424 112.777C193.383 113.262 193.456 113.75 193.638 114.201C193.825 114.674 194.18 115.061 194.635 115.288C195.105 115.485 195.631 115.504 196.114 115.343C196.583 115.198 197.02 114.964 197.401 114.655C198.046 114.111 198.571 113.438 198.942 112.681C199.261 111.961 199.492 111.206 199.63 110.431C199.67 110.645 199.67 110.864 199.63 111.078C199.561 111.667 199.401 112.243 199.155 112.784C198.798 113.599 198.265 114.325 197.594 114.91C197.19 115.254 196.722 115.516 196.218 115.68C195.651 115.87 195.034 115.846 194.484 115.611C193.944 115.354 193.525 114.898 193.314 114.339C193.115 113.836 193.04 113.294 193.094 112.756C193.215 111.884 193.461 111.034 193.823 110.231C194.05 109.699 194.232 109.149 194.367 108.587C194.401 108.376 194.447 108.167 194.504 107.961Z" fill="#263238"/>
<path d="M205.987 147.019C205.987 147.019 236.259 202.582 241.288 208.753L282.176 190.576L257.408 148.044C255.178 144.173 252.035 140.907 248.252 138.53C244.47 136.154 240.164 134.738 235.709 134.408H235.42C225.698 133.775 204.522 144.308 205.987 147.019Z" fill="#FFCB05"/>
<path d="M269.786 169.296L269.648 169.372L269.228 169.571L267.591 170.308L261.44 173.011L252.09 177.077L246.442 179.52L244.949 180.167C244.669 180.28 244.367 180.329 244.066 180.31C243.765 180.29 243.471 180.204 243.208 180.056C242.694 179.762 242.248 179.36 241.901 178.88C241.547 178.408 241.247 177.898 241.006 177.36C239.218 174.436 237.388 171.257 235.619 167.92C234.243 165.292 232.936 162.691 231.739 160.146C231.147 158.88 230.579 157.628 230.033 156.389C229.469 155.173 229.102 153.875 228.946 152.543C228.826 151.244 229.173 149.944 229.923 148.876C230.643 147.915 231.514 147.076 232.503 146.393C236.742 143.308 241.671 141.305 246.861 140.558C247.941 140.407 248.788 140.338 249.359 140.311H250.047C250.122 140.303 250.198 140.303 250.274 140.311H250.054L249.4 140.366C248.829 140.414 247.99 140.503 246.916 140.675C243.886 141.162 240.938 142.07 238.158 143.372C236.242 144.271 234.419 145.356 232.716 146.613C231.759 147.284 230.914 148.101 230.212 149.035C229.515 150.039 229.196 151.257 229.31 152.475C229.468 153.769 229.831 155.03 230.384 156.21C230.92 157.442 231.498 158.694 232.097 159.96C233.287 162.492 234.581 165.086 235.97 167.714C237.738 171.044 239.555 174.215 241.337 177.132C241.753 178.166 242.472 179.049 243.401 179.664C243.621 179.792 243.869 179.866 244.123 179.882C244.377 179.897 244.632 179.853 244.866 179.754L246.366 179.114L252.014 176.699L261.392 172.709L267.584 170.101L269.249 169.413L269.675 169.248C269.737 169.303 269.786 169.289 269.786 169.296Z" fill="#263238"/>
<g opacity="0.7">
<path opacity="0.7" d="M239.507 153.961C239.507 154.338 239.395 154.706 239.185 155.019C238.976 155.333 238.678 155.577 238.33 155.721C237.982 155.866 237.599 155.903 237.229 155.83C236.859 155.756 236.52 155.575 236.253 155.308C235.987 155.042 235.805 154.702 235.732 154.332C235.658 153.963 235.696 153.58 235.84 153.231C235.984 152.883 236.229 152.585 236.542 152.376C236.855 152.167 237.224 152.055 237.601 152.055C238.106 152.055 238.591 152.256 238.948 152.613C239.306 152.97 239.507 153.455 239.507 153.961Z" fill="white"/>
</g>
<g opacity="0.7">
<path opacity="0.7" d="M243.318 162.141C243.318 162.518 243.206 162.886 242.997 163.2C242.788 163.513 242.49 163.757 242.142 163.902C241.793 164.046 241.41 164.084 241.041 164.01C240.671 163.937 240.331 163.755 240.065 163.489C239.798 163.222 239.617 162.882 239.543 162.513C239.47 162.143 239.507 161.76 239.652 161.412C239.796 161.063 240.04 160.766 240.354 160.556C240.667 160.347 241.035 160.235 241.412 160.235C241.918 160.235 242.403 160.436 242.76 160.793C243.117 161.151 243.318 161.636 243.318 162.141Z" fill="white"/>
</g>
<g opacity="0.7">
<path opacity="0.7" d="M245.988 172.007C247.04 172.007 247.893 171.154 247.893 170.101C247.893 169.049 247.04 168.195 245.988 168.195C244.935 168.195 244.082 169.049 244.082 170.101C244.082 171.154 244.935 172.007 245.988 172.007Z" fill="white"/>
</g>
<path d="M251.67 147.466C251.243 147.785 250.782 148.055 250.294 148.271C249.428 148.725 248.23 149.324 246.854 149.936C245.478 150.548 244.247 151.071 243.339 151.422C242.86 151.65 242.353 151.817 241.832 151.917C242.274 151.622 242.747 151.378 243.242 151.188L246.682 149.612L250.122 148.044C250.615 147.793 251.134 147.599 251.67 147.466Z" fill="#263238"/>
<path d="M256.624 155.488C256.128 155.789 255.602 156.038 255.055 156.231L251.216 157.862L247.384 159.527C246.87 159.791 246.331 160.003 245.774 160.16C246.243 159.818 246.748 159.529 247.281 159.299C248.237 158.811 249.572 158.178 251.072 157.531C252.572 156.885 253.955 156.355 254.966 155.99C255.5 155.766 256.055 155.597 256.624 155.488Z" fill="#263238"/>
<path d="M259.693 164.466C258.283 165.287 256.813 166 255.296 166.599C253.828 167.311 252.311 167.916 250.755 168.409C252.165 167.588 253.634 166.875 255.152 166.276C256.62 165.565 258.138 164.96 259.693 164.466Z" fill="#263238"/>
<path d="M215.117 140.531C214.969 139.978 214.995 139.393 215.191 138.855C215.386 138.318 215.743 137.853 216.211 137.524C217.89 136.148 231.127 132.846 231.127 132.846C231.127 132.846 234.759 132.309 235.695 134.387L215.117 140.531Z" fill="#FFCB05"/>
<path opacity="0.2" d="M241.288 188.505L272.524 173.988L270.852 171.126L241.288 188.505Z" fill="black"/>
<g opacity="0.2">
<path opacity="0.2" d="M235.379 134.999C235.194 135.198 234.981 135.367 234.746 135.502C234.122 135.892 233.461 136.217 232.771 136.472C231.904 136.802 230.845 137.105 229.675 137.449C228.505 137.793 227.219 138.137 225.857 138.515C223.531 139.136 221.166 139.595 218.777 139.891C217.862 140.001 217.119 140.049 216.603 140.07C216.335 140.098 216.066 140.098 215.798 140.07C216.056 139.996 216.321 139.954 216.589 139.946C217.098 139.884 217.841 139.795 218.75 139.657C221.113 139.277 223.455 138.777 225.767 138.157L229.586 137.118C230.762 136.795 231.822 136.52 232.689 136.217C233.62 135.893 234.52 135.485 235.379 134.999Z" fill="black"/>
</g>
<g opacity="0.2">
<path opacity="0.2" d="M219.83 139.444C219.577 139.273 219.371 139.042 219.231 138.772C219.09 138.502 219.019 138.2 219.025 137.896C218.967 137.597 218.986 137.289 219.078 136.999C219.171 136.71 219.334 136.448 219.555 136.238C219.446 136.775 219.388 137.321 219.383 137.868C219.486 138.405 219.636 138.932 219.83 139.444Z" fill="black"/>
</g>
<g opacity="0.2">
<path opacity="0.2" d="M224.625 138.887C224.05 138.499 223.621 137.93 223.408 137.27C223.194 136.61 223.209 135.898 223.449 135.247C223.509 135.89 223.61 136.529 223.751 137.16C223.999 137.756 224.291 138.334 224.625 138.887Z" fill="black"/>
</g>
<g opacity="0.2">
<path opacity="0.2" d="M229.668 136.974C229.565 136.974 229.365 136.183 228.843 135.316C228.32 134.449 227.721 133.871 227.79 133.788C227.859 133.706 228.609 134.187 229.166 135.13C229.544 135.667 229.722 136.319 229.668 136.974Z" fill="black"/>
</g>
<path d="M274.429 192.943C274.429 192.943 338.255 205.457 339.597 212.509C340.938 219.561 338.221 281.88 338.221 281.88L319.782 282.252L317.78 227.962L241.288 207.962L274.429 192.943Z" fill="#FFCB05"/>
<path opacity="0.2" d="M274.429 192.943C274.429 192.943 338.255 205.457 339.597 212.509C340.938 219.561 338.221 281.88 338.221 281.88L319.782 282.252L317.78 227.962L241.288 207.962L274.429 192.943Z" fill="black"/>
<path d="M338.792 267.309L338.868 280.057C338.868 280.057 349.821 277.842 348.926 282.252C348.555 284.082 320.388 292.407 319.954 292.015L319.466 274.003L338.792 267.309Z" fill="#FFCB05"/>
<path opacity="0.4" d="M338.792 267.309L338.868 280.057C338.868 280.057 349.821 277.842 348.926 282.252C348.555 284.082 320.388 292.407 319.954 292.015L319.466 274.003L338.792 267.309Z" fill="black"/>
<path d="M348.272 282.823C348.114 282.414 347.87 282.043 347.557 281.735C347.244 281.428 346.868 281.191 346.456 281.041C345.868 280.828 345.245 280.727 344.619 280.745C340.953 281.064 337.339 281.82 333.852 282.995C330.355 284.166 326.993 285.704 323.821 287.584C322.61 288.306 321.647 288.96 320.986 289.366C320.66 289.623 320.312 289.854 319.948 290.054C320.247 289.774 320.566 289.516 320.904 289.283C321.544 288.809 322.486 288.148 323.69 287.391C326.848 285.448 330.221 283.878 333.742 282.713C337.257 281.518 340.914 280.789 344.619 280.546C345.275 280.54 345.926 280.667 346.532 280.917C346.99 281.108 347.399 281.4 347.729 281.77C347.937 282.001 348.099 282.269 348.204 282.562C348.24 282.645 348.264 282.733 348.272 282.823Z" fill="#263238"/>
<path d="M338.764 270.762C338.552 270.922 338.321 271.056 338.076 271.161C337.615 271.402 336.934 271.726 336.088 272.118C334.396 272.909 332.029 273.934 329.373 274.966C326.717 275.998 324.275 276.837 322.493 277.395C321.606 277.677 320.876 277.897 320.374 278.035C320.118 278.123 319.852 278.182 319.583 278.213C319.82 278.08 320.072 277.974 320.333 277.897L322.397 277.154C324.158 276.535 326.573 275.661 329.229 274.629C331.884 273.597 334.251 272.613 335.971 271.877L338.035 271.024C338.267 270.908 338.512 270.82 338.764 270.762Z" fill="#263238"/>
<path d="M327.22 278.035C327.22 278.035 327.22 277.918 327.392 277.801C327.504 277.724 327.633 277.675 327.768 277.656C327.902 277.637 328.04 277.649 328.169 277.691C328.358 277.745 328.528 277.853 328.658 278C328.799 278.177 328.881 278.393 328.892 278.619C328.896 278.871 328.832 279.118 328.706 279.336C328.579 279.553 328.396 279.731 328.176 279.852C327.955 279.972 327.706 280.03 327.455 280.019C327.204 280.008 326.961 279.928 326.752 279.789C326.569 279.65 326.439 279.454 326.38 279.232C326.341 279.041 326.355 278.843 326.422 278.661C326.461 278.53 326.529 278.41 326.621 278.309C326.712 278.208 326.825 278.128 326.951 278.076C327.13 278.021 327.24 278.076 327.233 278.076C327.227 278.076 327.137 278.117 327.013 278.207C326.833 278.329 326.707 278.516 326.662 278.729C326.621 278.874 326.626 279.028 326.677 279.17C326.727 279.312 326.821 279.435 326.944 279.521C327.103 279.624 327.287 279.682 327.476 279.69C327.665 279.697 327.853 279.652 328.019 279.561C328.185 279.47 328.323 279.336 328.418 279.172C328.514 279.009 328.563 278.822 328.561 278.633C328.563 278.483 328.519 278.337 328.434 278.213C328.348 278.09 328.227 277.996 328.087 277.945C327.885 277.866 327.662 277.866 327.46 277.945C327.316 277.952 327.247 278.048 327.22 278.035Z" fill="#263238"/>
<path d="M323.312 291.437C323.301 290.063 323.534 288.698 324 287.405C324.01 288.779 323.777 290.144 323.312 291.437Z" fill="#263238"/>
<path d="M326.112 290.632C326.103 289.758 326.214 288.888 326.442 288.045C326.553 287.175 326.785 286.326 327.13 285.52C327.135 286.395 327.024 287.268 326.8 288.114C326.685 288.98 326.453 289.827 326.112 290.632Z" fill="#263238"/>
<path d="M329.18 289.792C329.283 287.922 329.623 286.073 330.192 284.288C330.089 286.159 329.749 288.008 329.18 289.792Z" fill="#263238"/>
<path d="M332.676 288.74C332.778 286.748 333.118 284.776 333.687 282.864C333.584 284.856 333.245 286.828 332.676 288.74Z" fill="#263238"/>
<path d="M335.985 287.715C336.087 285.723 336.427 283.751 336.996 281.839C336.894 283.831 336.554 285.803 335.985 287.715Z" fill="#263238"/>
<path d="M339.59 286.394C339.585 285.489 339.696 284.587 339.92 283.711C340.036 282.815 340.267 281.939 340.608 281.103C340.617 282.006 340.506 282.906 340.278 283.779C340.167 284.678 339.936 285.557 339.59 286.394Z" fill="#263238"/>
<path d="M343.202 285.032C343.303 283.497 343.644 281.988 344.213 280.56C344.218 281.331 344.104 282.099 343.876 282.837C343.767 283.599 343.539 284.339 343.202 285.032Z" fill="#263238"/>
<path d="M289.008 281C289.153 281.261 286.903 282.754 283.986 284.344C281.069 285.933 278.592 286.999 278.482 286.738C278.372 286.476 280.594 284.983 283.511 283.394C286.428 281.805 288.871 280.738 289.008 281Z" fill="#263238"/>
<path d="M321.021 130.803V130.761C324.25 129.432 327.406 127.93 330.474 126.262C334.602 123.771 334.409 123.4 334.031 122.959C333.033 121.797 326.566 127.087 327.302 125.127C328.038 123.166 335.957 119.623 334.87 118.425C333.439 116.898 326.772 122.553 326.174 122.973C325.575 123.393 324.929 122.56 325.486 122.196C326.298 121.673 334.65 115.956 333.26 114.442C332.49 113.603 331.114 115.13 331.114 115.13C331.114 115.13 323.69 121.047 323.057 120.311C322.424 119.574 326.655 115.942 328.176 114.807C329.696 113.671 329.751 112.536 328.713 112.282C328.025 112.103 323.277 115.426 321.833 116.568C320.388 117.71 316.37 120.916 317.051 117.737C317.732 114.559 317.051 111.862 316.363 111.256C315.675 110.651 314.581 111.394 314.801 112.378C314.934 113.467 314.913 114.569 314.739 115.653C314.636 116.531 314.382 117.385 313.989 118.178C313.535 119.1 313.109 119.856 312.73 120.496C312.105 121.509 311.902 122.727 312.166 123.888C312.696 125.588 318.854 131.601 318.854 131.601L321.021 130.803Z" fill="#FFCB05"/>
<g opacity="0.7">
<path opacity="0.7" d="M321.021 130.803V130.761C324.25 129.432 327.406 127.93 330.474 126.262C334.602 123.771 334.409 123.4 334.031 122.959C333.033 121.797 326.566 127.087 327.302 125.127C328.038 123.166 335.957 119.623 334.87 118.425C333.439 116.898 326.772 122.553 326.174 122.973C325.575 123.393 324.929 122.56 325.486 122.196C326.298 121.673 334.65 115.956 333.26 114.442C332.49 113.603 331.114 115.13 331.114 115.13C331.114 115.13 323.69 121.047 323.057 120.311C322.424 119.574 326.655 115.942 328.176 114.807C329.696 113.671 329.751 112.536 328.713 112.282C328.025 112.103 323.277 115.426 321.833 116.568C320.388 117.71 316.37 120.916 317.051 117.737C317.732 114.559 317.051 111.862 316.363 111.256C315.675 110.651 314.581 111.394 314.801 112.378C314.934 113.467 314.913 114.569 314.739 115.653C314.636 116.531 314.382 117.385 313.989 118.178C313.535 119.1 313.109 119.856 312.73 120.496C312.105 121.509 311.902 122.727 312.166 123.888C312.696 125.588 318.854 131.601 318.854 131.601L321.021 130.803Z" fill="white"/>
</g>
<path d="M240.566 135.57C241.997 136.637 281.997 138.006 281.997 138.006L308.093 123.303L318.544 133.286C318.544 133.286 288.079 153.782 284.687 154.497C281.296 155.213 256.562 154.497 256.562 154.497L240.566 135.57Z" fill="#FFCB05"/>
<path d="M308.554 123.895L317.56 133.424C317.84 133.723 318.218 133.913 318.626 133.958C319.033 134.003 319.443 133.902 319.782 133.672L319.844 133.63C320.052 133.49 320.227 133.305 320.356 133.09C320.485 132.875 320.566 132.635 320.593 132.385C320.62 132.136 320.592 131.883 320.512 131.646C320.431 131.408 320.299 131.191 320.126 131.009L311.052 121.521C310.787 121.242 310.437 121.059 310.056 121.003C309.676 120.947 309.287 121.02 308.953 121.212C308.726 121.341 308.53 121.52 308.382 121.735C308.234 121.951 308.137 122.197 308.099 122.456C308.06 122.715 308.081 122.979 308.16 123.228C308.239 123.478 308.374 123.706 308.554 123.895Z" fill="#FFCB05"/>
<path opacity="0.5" d="M308.554 123.895L317.56 133.424C317.84 133.723 318.218 133.913 318.626 133.958C319.033 134.003 319.443 133.902 319.782 133.672L319.844 133.63C320.052 133.49 320.227 133.305 320.356 133.09C320.485 132.875 320.566 132.635 320.593 132.385C320.62 132.136 320.592 131.883 320.512 131.646C320.431 131.408 320.299 131.191 320.126 131.009L311.052 121.521C310.787 121.242 310.437 121.059 310.056 121.003C309.676 120.947 309.287 121.02 308.953 121.212C308.726 121.341 308.53 121.52 308.382 121.735C308.234 121.951 308.137 122.197 308.099 122.456C308.06 122.715 308.081 122.979 308.16 123.228C308.239 123.478 308.374 123.706 308.554 123.895Z" fill="white"/>
<path d="M284.77 154.477C284.545 154.386 284.334 154.264 284.144 154.112C283.631 153.717 283.156 153.275 282.727 152.791C281.283 151.189 280.313 149.217 279.927 147.096C279.54 144.974 279.752 142.787 280.539 140.779C280.771 140.175 281.059 139.595 281.399 139.045C281.511 138.834 281.655 138.641 281.825 138.474C281.887 138.474 281.303 139.348 280.78 140.868C280.075 142.844 279.902 144.97 280.277 147.033C280.653 149.097 281.564 151.025 282.919 152.626C283.979 153.844 284.832 154.422 284.77 154.477Z" fill="#263238"/>
<path d="M315.104 130.3C315.01 130.398 314.906 130.486 314.794 130.562L313.872 131.25C313.067 131.848 311.891 132.701 310.432 133.74C307.508 135.804 303.415 138.625 298.826 141.604C294.237 144.583 290.006 147.191 286.896 149.021C285.355 149.943 284.096 150.672 283.222 151.16L282.211 151.718C282.096 151.791 281.974 151.851 281.846 151.897C281.945 151.802 282.056 151.721 282.176 151.656L283.153 151.044L286.765 148.808C289.82 146.922 294.024 144.294 298.613 141.315C303.202 138.336 307.336 135.536 310.288 133.541L313.804 131.14L314.76 130.5C314.865 130.418 314.981 130.35 315.104 130.3Z" fill="#263238"/>
<path d="M281.874 151.449C281.874 151.546 276.59 151.449 270.081 151.16C263.573 150.871 258.296 150.617 258.296 150.521C258.296 150.424 263.58 150.521 270.095 150.803C276.61 151.085 281.88 151.36 281.874 151.449Z" fill="#263238"/>
<g opacity="0.2">
<path opacity="0.2" d="M263.738 154.669C262.142 150.226 259.88 146.05 257.03 142.285C254.374 138.708 247.721 135.894 243.27 136.093C249.627 138.962 258.021 147.569 261.068 154.724L263.738 154.669Z" fill="black"/>
</g>
<path d="M207.012 145.237C206.758 143.985 181.969 164.074 171.553 172.578C170.137 173.734 168.996 175.191 168.213 176.842C167.43 178.494 167.024 180.299 167.026 182.127C167.026 183.746 167.345 185.35 167.964 186.845C168.584 188.341 169.492 189.7 170.637 190.845C171.782 191.99 173.141 192.898 174.637 193.518C176.132 194.137 177.736 194.456 179.355 194.456H209.551V179.141H189.888L215.131 162.512L207.012 145.237Z" fill="#FFCB05"/>
<path d="M213.418 192.757V192.709C216.869 193.238 220.346 193.578 223.834 193.727C228.65 193.727 228.684 193.301 228.588 192.736C228.333 191.223 220.077 192.399 221.708 191.12C223.339 189.84 231.973 190.844 231.643 189.276C231.209 187.212 222.589 188.622 221.846 188.691C221.103 188.76 220.992 187.686 221.66 187.666C222.623 187.666 232.723 187.047 232.317 185.031C232.09 183.916 230.122 184.508 230.122 184.508C230.122 184.508 220.71 185.753 220.552 184.797C220.394 183.84 225.891 182.905 227.769 182.733C229.648 182.561 230.294 181.604 229.531 180.848C229.015 180.332 223.249 180.738 221.398 180.958C219.548 181.178 214.477 181.873 216.699 179.499C218.922 177.126 219.733 174.463 219.451 173.589C219.368 173.394 219.225 173.23 219.043 173.12C218.861 173.011 218.65 172.961 218.438 172.979C218.226 172.996 218.026 173.08 217.864 173.218C217.703 173.356 217.589 173.541 217.539 173.748C217.085 174.741 216.497 175.667 215.791 176.5C215.251 177.198 214.595 177.799 213.851 178.275C212.984 178.832 212.227 179.265 211.574 179.616C210.518 180.164 209.719 181.102 209.345 182.231C208.918 183.964 211.099 192.282 211.099 192.282L213.418 192.757Z" fill="#FFCB05"/>
<g opacity="0.7">
<path opacity="0.7" d="M213.418 192.757V192.709C216.869 193.238 220.346 193.578 223.834 193.727C228.65 193.727 228.684 193.301 228.588 192.736C228.333 191.223 220.077 192.399 221.708 191.12C223.339 189.84 231.973 190.844 231.643 189.276C231.209 187.212 222.589 188.622 221.846 188.691C221.103 188.76 220.992 187.686 221.66 187.666C222.623 187.666 232.723 187.047 232.317 185.031C232.09 183.916 230.122 184.508 230.122 184.508C230.122 184.508 220.71 185.753 220.552 184.797C220.394 183.84 225.891 182.905 227.769 182.733C229.648 182.561 230.294 181.604 229.531 180.848C229.015 180.332 223.249 180.738 221.398 180.958C219.548 181.178 214.477 181.873 216.699 179.499C218.922 177.126 219.733 174.463 219.451 173.589C219.368 173.394 219.225 173.23 219.043 173.12C218.861 173.011 218.65 172.961 218.438 172.979C218.226 172.996 218.026 173.08 217.864 173.218C217.703 173.356 217.589 173.541 217.539 173.748C217.085 174.741 216.497 175.667 215.791 176.5C215.251 177.198 214.595 177.799 213.851 178.275C212.984 178.832 212.227 179.265 211.574 179.616C210.518 180.164 209.719 181.102 209.345 182.231C208.918 183.964 211.099 192.282 211.099 192.282L213.418 192.757Z" fill="white"/>
</g>
<path d="M168.01 176.94C168.215 176.687 168.445 176.457 168.698 176.252C169.369 175.654 170.1 175.126 170.879 174.676C173.473 173.16 176.482 172.505 179.472 172.805C182.454 173.154 185.253 174.424 187.48 176.438C188.15 177.039 188.758 177.705 189.296 178.426C189.507 178.68 189.685 178.96 189.826 179.258C189.054 178.323 188.214 177.444 187.315 176.63C185.089 174.726 182.347 173.529 179.437 173.19C176.515 172.901 173.574 173.505 171.002 174.924C169.957 175.523 168.957 176.196 168.01 176.94Z" fill="#263238"/>
<path d="M211.588 158.102C211.643 158.178 206.084 162.23 199.142 167.225C192.2 172.22 186.551 176.135 186.489 176.052C186.427 175.97 191.993 171.924 198.935 166.929C205.877 161.935 211.526 158.02 211.588 158.102Z" fill="#263238"/>
<path d="M207.122 187.267C206.997 187.305 206.868 187.328 206.737 187.335L205.616 187.452C204.646 187.556 203.235 187.679 201.488 187.817C198.006 188.085 193.177 188.368 187.845 188.505C182.513 188.643 177.676 188.656 174.181 188.595C172.433 188.595 171.016 188.519 170.053 188.478L168.931 188.423C168.799 188.422 168.668 188.406 168.539 188.374C168.67 188.358 168.801 188.358 168.931 188.374H174.195C177.69 188.374 182.519 188.374 187.851 188.182C193.183 187.989 197.999 187.783 201.488 187.576L205.616 187.329L206.744 187.274C206.869 187.256 206.996 187.254 207.122 187.267Z" fill="#263238"/>
<g opacity="0.2">
<path opacity="0.2" d="M192.564 177.442C192.468 175 190.5 172.881 188.223 172.083C185.946 171.285 182.836 172.007 180.566 172.908C184.184 173.961 187.893 175.997 189.915 179.183L192.564 177.442Z" fill="black"/>
</g>
<path d="M207.267 179.657L207.604 192.764C207.615 193.172 207.77 193.564 208.042 193.869C208.314 194.173 208.685 194.372 209.09 194.429H209.166C209.415 194.463 209.669 194.442 209.91 194.368C210.15 194.294 210.372 194.169 210.559 194.001C210.746 193.832 210.895 193.625 210.994 193.394C211.093 193.163 211.141 192.912 211.133 192.661L210.721 179.54C210.707 179.154 210.564 178.783 210.315 178.487C210.065 178.192 209.723 177.988 209.345 177.91C209.089 177.857 208.824 177.862 208.57 177.926C208.317 177.99 208.081 178.111 207.881 178.279C207.681 178.447 207.522 178.659 207.415 178.898C207.309 179.136 207.258 179.396 207.267 179.657Z" fill="#FFCB05"/>
<path opacity="0.5" d="M207.267 179.657L207.604 192.764C207.615 193.172 207.77 193.564 208.042 193.869C208.314 194.173 208.685 194.372 209.09 194.429H209.166C209.415 194.463 209.669 194.442 209.91 194.368C210.15 194.294 210.372 194.169 210.559 194.001C210.746 193.832 210.895 193.625 210.994 193.394C211.093 193.163 211.141 192.912 211.133 192.661L210.721 179.54C210.707 179.154 210.564 178.783 210.315 178.487C210.065 178.192 209.723 177.988 209.345 177.91C209.089 177.857 208.824 177.862 208.57 177.926C208.317 177.99 208.081 178.111 207.881 178.279C207.681 178.447 207.522 178.659 207.415 178.898C207.309 179.136 207.258 179.396 207.267 179.657Z" fill="white"/>
<path d="M213.101 164.294C214.354 163.407 215.461 162.33 216.383 161.102C217.342 159.75 218.042 158.231 218.447 156.623C218.687 155.677 218.832 154.709 218.88 153.734C218.921 152.687 218.843 151.639 218.646 150.61C218.247 148.505 217.27 146.565 215.674 145.56C214.251 144.713 212.599 144.328 210.948 144.459C209.829 144.536 208.717 144.702 207.625 144.955C207.222 145.054 206.813 145.125 206.4 145.168C206.4 145.168 206.496 145.12 206.696 145.051C206.895 144.982 207.198 144.9 207.583 144.796C208.675 144.482 209.795 144.275 210.927 144.177C212.64 144.002 214.364 144.381 215.846 145.257C216.704 145.817 217.412 146.578 217.91 147.473C218.44 148.417 218.81 149.442 219.004 150.507C219.207 151.565 219.285 152.643 219.238 153.72C219.184 154.721 219.03 155.715 218.777 156.685C218.337 158.324 217.59 159.865 216.576 161.226C215.893 162.141 215.076 162.948 214.154 163.62C213.904 163.804 213.642 163.969 213.369 164.116C213.288 164.187 213.198 164.247 213.101 164.294Z" fill="#263238"/>
<path d="M327.344 188.209L303.408 214.697L290.033 205.265L312.049 178.99L253.941 209.696C251.24 211.09 248.113 211.418 245.181 210.614C242.25 209.81 239.728 207.932 238.117 205.354C237.213 203.908 236.624 202.287 236.389 200.598C236.155 198.908 236.28 197.188 236.756 195.55C237.232 193.912 238.048 192.393 239.152 191.093C240.255 189.792 241.621 188.739 243.16 188.003L305.967 157.951C310.391 155.831 315.413 155.308 320.178 156.471C324.944 157.633 329.161 160.41 332.111 164.329C338.042 172.213 334.912 180.511 327.344 188.209Z" fill="#FFCB05"/>
<path d="M317.911 171.711C317.911 171.711 317.911 171.677 317.842 171.594L317.663 171.229C317.453 170.756 317.19 170.309 316.879 169.895C316.402 169.212 315.754 168.667 315.001 168.312C313.975 167.868 312.823 167.814 311.76 168.161L279.149 185.23L251.003 199.816L242.458 204.205L240.112 205.375L239.5 205.671L239.286 205.76C239.286 205.76 239.348 205.712 239.479 205.636L240.078 205.306L242.376 204.075L250.872 199.589L278.97 184.9L311.65 167.975C312.762 167.62 313.966 167.691 315.028 168.175C315.797 168.549 316.453 169.121 316.927 169.833C317.229 170.262 317.483 170.724 317.684 171.209L317.835 171.58C317.904 171.67 317.918 171.711 317.911 171.711Z" fill="#263238"/>
<path d="M320.801 168.154C320.876 168.216 318.819 170.906 316.205 174.098C313.59 177.291 311.389 179.891 311.334 179.829C311.279 179.768 313.315 177.077 315.93 173.878C317.457 171.89 319.082 169.98 320.801 168.154Z" fill="#263238"/>
<path d="M315.51 201.323L302.768 215.977C302.768 215.977 310.04 224.563 308.829 225.575C307.618 226.586 287.446 208.595 287.446 208.595L300.656 191.711L315.51 201.323Z" fill="#FFCB05"/>
<path opacity="0.4" d="M315.51 201.323L302.768 215.977C302.768 215.977 310.04 224.563 308.829 225.575C307.618 226.586 287.446 208.595 287.446 208.595L300.656 191.711L315.51 201.323Z" fill="black"/>
<path d="M312.297 205.272C312.249 205.361 308.671 203.476 304.302 201.061C299.933 198.646 296.432 196.624 296.48 196.541C296.528 196.458 300.105 198.337 304.474 200.752C308.843 203.166 312.352 205.189 312.297 205.272Z" fill="#263238"/>
<path d="M295.496 205.616C295.496 205.616 295.427 205.74 295.331 205.96C295.206 206.265 295.175 206.6 295.241 206.923C295.28 207.156 295.371 207.378 295.507 207.572C295.642 207.766 295.82 207.928 296.026 208.044C296.287 208.145 296.57 208.171 296.845 208.118C297.119 208.065 297.374 207.937 297.579 207.747C297.784 207.557 297.931 207.313 298.005 207.043C298.078 206.774 298.074 206.489 297.993 206.221C297.893 206.008 297.746 205.82 297.564 205.67C297.382 205.52 297.169 205.412 296.941 205.354C296.624 205.262 296.288 205.262 295.971 205.354C295.744 205.43 295.634 205.519 295.613 205.492C295.592 205.464 295.682 205.354 295.916 205.23C296.249 205.06 296.631 205.011 296.996 205.093C297.274 205.145 297.536 205.261 297.762 205.431C297.988 205.602 298.171 205.823 298.296 206.077C298.412 206.408 298.428 206.766 298.343 207.107C298.258 207.448 298.075 207.756 297.817 207.994C297.559 208.232 297.237 208.39 296.891 208.448C296.545 208.506 296.189 208.461 295.868 208.32C295.625 208.174 295.419 207.974 295.268 207.735C295.116 207.496 295.022 207.225 294.994 206.944C294.939 206.572 295.014 206.193 295.207 205.87C295.352 205.671 295.489 205.602 295.496 205.616Z" fill="#263238"/>
<path opacity="0.2" d="M295.097 188.003L311.616 179.279L320.168 168.925L295.097 188.003Z" fill="black"/>
<path d="M321.204 97.1712C330.788 96.9471 338.375 88.9959 338.151 79.4118C337.927 69.8277 329.976 62.2401 320.392 62.4643C310.808 62.6884 303.22 70.6396 303.444 80.2237C303.668 89.8077 311.619 97.3954 321.204 97.1712Z" fill="#455A64"/>
<path d="M326.456 73.1757C326.47 72.6164 326.649 72.0737 326.971 71.6164C327.294 71.1591 327.745 70.8077 328.267 70.6067C328.789 70.4056 329.359 70.364 329.904 70.487C330.45 70.61 330.947 70.8922 331.333 71.2978C331.718 71.7034 331.974 72.2142 332.069 72.7655C332.164 73.3169 332.094 73.884 331.866 74.3952C331.639 74.9063 331.265 75.3385 330.791 75.637C330.318 75.9355 329.767 76.087 329.208 76.0722C328.459 76.0523 327.749 75.7362 327.233 75.1932C326.717 74.6501 326.437 73.9245 326.456 73.1757Z" fill="#263238"/>
<path d="M332.111 79.808C332.118 79.4812 332.222 79.1639 332.409 78.8961C332.597 78.6284 332.859 78.4222 333.164 78.3038C333.469 78.1855 333.802 78.1601 334.121 78.2311C334.44 78.3021 334.731 78.4661 334.956 78.7024C335.182 78.9388 335.333 79.2368 335.389 79.5588C335.445 79.8807 335.404 80.2121 335.272 80.511C335.14 80.8099 334.922 81.0628 334.646 81.2377C334.37 81.4126 334.048 81.5017 333.721 81.4936C333.505 81.4891 333.291 81.4419 333.093 81.3547C332.895 81.2675 332.716 81.142 332.566 80.9853C332.416 80.8287 332.299 80.6441 332.221 80.442C332.143 80.24 332.106 80.0245 332.111 79.808Z" fill="#263238"/>
<path d="M329.903 84.8373C330.053 84.8533 330.192 84.9243 330.293 85.0367C330.394 85.1492 330.45 85.295 330.45 85.4462C330.45 85.5973 330.394 85.7432 330.293 85.8556C330.192 85.968 330.053 86.039 329.903 86.055C329.753 86.039 329.613 85.968 329.512 85.8556C329.411 85.7432 329.355 85.5973 329.355 85.4462C329.355 85.295 329.411 85.1492 329.512 85.0367C329.613 84.9243 329.753 84.8533 329.903 84.8373Z" fill="#263238"/>
<path d="M395.036 116.465L395.414 117.153C395.841 117.93 396.48 118.57 397.258 118.997L397.946 119.375L397.258 119.76C396.48 120.187 395.841 120.826 395.414 121.604L395.036 122.292L394.657 121.604C394.231 120.826 393.591 120.187 392.814 119.76L392.126 119.375L392.814 118.997C393.591 118.57 394.231 117.93 394.657 117.153L395.036 116.465Z" fill="#455A64"/>
<path d="M94.8202 219.383L95.2054 220.071C95.6301 220.85 96.2702 221.49 97.0493 221.914L97.7373 222.293L97.0493 222.678C96.2702 223.103 95.6301 223.743 95.2054 224.522L94.8202 225.21L94.4418 224.522C94.0152 223.744 93.3755 223.105 92.5979 222.678L91.9099 222.293L92.5979 221.914C93.3755 221.488 94.0152 220.848 94.4418 220.071L94.8202 219.383Z" fill="#455A64"/>
<path d="M177.132 217.759L177.325 218.103C177.539 218.492 177.858 218.811 178.247 219.025L178.598 219.217L178.247 219.403C177.858 219.619 177.538 219.941 177.325 220.332L177.132 220.676L176.947 220.332C176.734 219.941 176.414 219.619 176.025 219.403L175.674 219.217L176.025 219.025C176.414 218.811 176.733 218.492 176.947 218.103L177.132 217.759Z" fill="#455A64"/>
<path d="M366.539 216.465L366.732 216.816C366.945 217.205 367.265 217.525 367.653 217.738L367.997 217.924L367.653 218.117C367.263 218.328 366.943 218.648 366.732 219.039L366.539 219.383L366.353 219.039C366.14 218.65 365.82 218.33 365.431 218.117L365.08 217.924L365.431 217.738C365.819 217.523 366.138 217.204 366.353 216.816L366.539 216.465Z" fill="#455A64"/>
<path d="M278.392 112.908L278.578 113.252C278.791 113.64 279.111 113.96 279.5 114.174L279.851 114.366L279.5 114.552C279.113 114.767 278.793 115.087 278.578 115.474L278.392 115.825L278.2 115.474C277.981 115.085 277.656 114.765 277.264 114.552L276.913 114.366L277.264 114.208C277.653 113.995 277.972 113.675 278.186 113.286L278.392 112.908Z" fill="#455A64"/>
<path d="M176.025 99.7119L176.21 100.056C176.423 100.447 176.743 100.769 177.132 100.985L177.483 101.17L177.132 101.363C176.744 101.576 176.424 101.896 176.21 102.285L176.025 102.629L175.832 102.285C175.621 101.895 175.301 101.574 174.91 101.363L174.566 101.17L174.91 100.985C175.301 100.771 175.621 100.448 175.832 100.056L176.025 99.7119Z" fill="#455A64"/>
<path d="M245.988 53.5952L246.676 54.7923C247.411 56.1368 248.516 57.2423 249.861 57.9778L251.058 58.6658L249.861 59.3538C248.516 60.0892 247.411 61.1947 246.676 62.5392L245.988 63.7363L245.3 62.5392C244.591 61.1778 243.507 60.0483 242.176 59.285L240.979 58.597L242.176 57.909C243.52 57.1735 244.626 56.068 245.361 54.7235L245.988 53.5952Z" fill="#455A64"/>
<path d="M174.938 267.921L175.591 269.118C176.325 270.464 177.431 271.57 178.777 272.304L179.974 272.992L178.777 273.645C177.432 274.381 176.327 275.486 175.591 276.831L174.938 278.028L174.25 276.831C173.514 275.486 172.409 274.381 171.064 273.645L169.867 272.992L171.064 272.304C172.41 271.57 173.516 270.464 174.25 269.118L174.938 267.921Z" fill="#455A64"/>
</svg>
