<svg width="30" height="28" viewBox="0 0 30 28" fill="none" xmlns="http://www.w3.org/2000/svg">
<path d="M15 25.2L14.2929 25.9072C14.4804 26.0947 14.7348 26.2 15 26.2C15.2652 26.2 15.5196 26.0947 15.7071 25.9072L15 25.2ZM3.86634 14.0664L3.15924 14.7735L3.15924 14.7735L3.86634 14.0664ZM13.1997 4.73305L12.4926 5.44015L13.1997 4.73305ZM15 6.53338L14.2929 7.24049C14.6834 7.63101 15.3166 7.63101 15.7071 7.24049L15 6.53338ZM16.8004 4.73304L16.0932 4.02594V4.02594L16.8004 4.73304ZM15.7071 24.4929L4.57345 13.3593L3.15924 14.7735L14.2929 25.9072L15.7071 24.4929ZM25.4266 13.3593L14.2929 24.4929L15.7071 25.9072L26.8408 14.7735L25.4266 13.3593ZM12.4926 5.44015L14.2929 7.24049L15.7071 5.82628L13.9068 4.02594L12.4926 5.44015ZM15.7071 7.24049L17.5075 5.44015L16.0932 4.02594L14.2929 5.82628L15.7071 7.24049ZM21.467 1.80005C19.4515 1.80005 17.5185 2.60072 16.0932 4.02594L17.5075 5.44015C18.5576 4.39001 19.9819 3.80005 21.467 3.80005V1.80005ZM27.0667 9.39971C27.0667 10.8848 26.4767 12.3091 25.4266 13.3593L26.8408 14.7735C28.266 13.3483 29.0667 11.4153 29.0667 9.39971H27.0667ZM29.0667 9.39971C29.0667 5.20253 25.6642 1.80005 21.467 1.80005V3.80005C24.5596 3.80005 27.0667 6.3071 27.0667 9.39971H29.0667ZM8.53301 3.80005C10.0181 3.80005 11.4424 4.39001 12.4926 5.44015L13.9068 4.02594C12.4816 2.60073 10.5486 1.80005 8.53301 1.80005V3.80005ZM2.93335 9.39971C2.93335 6.3071 5.4404 3.80005 8.53301 3.80005V1.80005C4.33583 1.80005 0.93335 5.20253 0.93335 9.39971H2.93335ZM4.57345 13.3593C3.52331 12.3091 2.93335 10.8848 2.93335 9.39971H0.93335C0.93335 11.4153 1.73402 13.3483 3.15924 14.7735L4.57345 13.3593Z" fill="#6C6868"/>
</svg>
