<svg width="30" height="28" viewBox="0 0 30 28" fill="none" xmlns="http://www.w3.org/2000/svg">
<path d="M3.86634 14.0663L15 25.2L26.1337 14.0663C27.3714 12.8286 28.0667 11.15 28.0667 9.39965C28.0667 5.75476 25.1119 2.79999 21.467 2.79999C19.7167 2.79999 18.038 3.49531 16.8004 4.73298L15 6.53332L13.1997 4.73298C11.962 3.49531 10.2834 2.79999 8.53301 2.79999C4.88812 2.79999 1.93335 5.75476 1.93335 9.39965C1.93335 11.15 2.62867 12.8286 3.86634 14.0663Z" fill="#FF3205"/>
<path d="M15 25.2L14.2929 25.9071C14.4804 26.0946 14.7348 26.2 15 26.2C15.2652 26.2 15.5196 26.0946 15.7071 25.9071L15 25.2ZM3.86634 14.0663L3.15924 14.7734L3.15924 14.7734L3.86634 14.0663ZM13.1997 4.73298L12.4926 5.44009L13.1997 4.73298ZM15 6.53332L14.2929 7.24043C14.6834 7.63095 15.3166 7.63095 15.7071 7.24043L15 6.53332ZM16.8004 4.73298L16.0932 4.02588V4.02588L16.8004 4.73298ZM15.7071 24.4929L4.57345 13.3592L3.15924 14.7734L14.2929 25.9071L15.7071 24.4929ZM25.4266 13.3592L14.2929 24.4929L15.7071 25.9071L26.8408 14.7734L25.4266 13.3592ZM12.4926 5.44009L14.2929 7.24043L15.7071 5.82621L13.9068 4.02588L12.4926 5.44009ZM15.7071 7.24043L17.5075 5.44009L16.0932 4.02588L14.2929 5.82621L15.7071 7.24043ZM21.467 1.79999C19.4515 1.79999 17.5185 2.60066 16.0932 4.02588L17.5075 5.44009C18.5576 4.38995 19.9819 3.79999 21.467 3.79999V1.79999ZM27.0667 9.39965C27.0667 10.8848 26.4767 12.3091 25.4266 13.3592L26.8408 14.7734C28.266 13.3482 29.0667 11.4152 29.0667 9.39965H27.0667ZM29.0667 9.39965C29.0667 5.20247 25.6642 1.79999 21.467 1.79999V3.79999C24.5596 3.79999 27.0667 6.30704 27.0667 9.39965H29.0667ZM8.53301 3.79999C10.0181 3.79999 11.4424 4.38995 12.4926 5.44009L13.9068 4.02588C12.4816 2.60066 10.5486 1.79999 8.53301 1.79999V3.79999ZM2.93335 9.39965C2.93335 6.30704 5.4404 3.79999 8.53301 3.79999V1.79999C4.33583 1.79999 0.93335 5.20247 0.93335 9.39965H2.93335ZM4.57345 13.3592C3.52331 12.3091 2.93335 10.8848 2.93335 9.39965H0.93335C0.93335 11.4152 1.73402 13.3482 3.15924 14.7734L4.57345 13.3592Z" fill="#FF3205"/>
</svg>
